<?xml version="1.0" encoding="UTF-8" standalone="no"?>
<!-- Created with Inkscape (http://www.inkscape.org/) -->

<svg
   xmlns:dc="http://purl.org/dc/elements/1.1/"
   xmlns:cc="http://creativecommons.org/ns#"
   xmlns:rdf="http://www.w3.org/1999/02/22-rdf-syntax-ns#"
   xmlns:svg="http://www.w3.org/2000/svg"
   xmlns="http://www.w3.org/2000/svg"
   xmlns:sodipodi="http://sodipodi.sourceforge.net/DTD/sodipodi-0.dtd"
   xmlns:inkscape="http://www.inkscape.org/namespaces/inkscape"
   viewBox="-12500 0 0 125"
   width="140"
   height="140"
   id="svg3114"
   version="1.1"
   sodipodi:docname="raisins.svg"
   inkscape:version="0.91 r13725">
  <defs
     id="defs3116" />
  <sodipodi:namedview
     id="base"
     pagecolor="#ffffff"
     bordercolor="#666666"
     borderopacity="1.0"
     showgrid="false"
     showguides="true"
     fit-margin-top="0"
     fit-margin-left="0"
     fit-margin-right="0"
     fit-margin-bottom="0"
     inkscape:zoom="2.6700352"
     inkscape:cx="-65.466102"
     inkscape:cy="61.440678"
     inkscape:window-width="1600"
     inkscape:window-height="836"
     inkscape:window-x="0"
     inkscape:window-y="27"
     inkscape:window-maximized="1"
     inkscape:current-layer="svg3114"
     inkscape:guide-bbox="true">
    <sodipodi:guide
       position="-137.8259,70.03653"
       orientation="0,1"
       id="guide5996" />
    <sodipodi:guide
       position="-250.93302,95.878886"
       orientation="1,0"
       id="guide5998" />
  </sodipodi:namedview>
  <metadata
     id="metadata3119">
    <rdf:RDF>
      <cc:Work
         rdf:about="">
        <dc:format>image/svg+xml</dc:format>
        <dc:type
           rdf:resource="http://purl.org/dc/dcmitype/StillImage" />
        <dc:title></dc:title>
      </cc:Work>
    </rdf:RDF>
  </metadata>
  <path
     d="m 63.242165,2.0576458 c -7.71561,0 -14.303421,6.4010734 -14.303421,17.1271602 0,0 -12.611501,-11.3000538 -29.741616,-8.101752 0,0 -3.173423,17.492068 6.096106,25.176132 -1.002577,1.181731 -1.780949,2.580099 -2.216767,4.11685 -1.303088,-4.579915 -5.480973,-7.94341 -10.476859,-7.94341 -6.0358125,0 -10.925491,4.867533 -10.925491,10.899099 0,6.031566 4.8896785,10.925494 10.925491,10.925494 1.109959,0 2.158719,-0.195803 3.166808,-0.501412 -2.166864,1.9939 -3.536269,4.818052 -3.536269,7.996193 0,6.032623 4.88968,10.925492 10.925492,10.925492 0.988989,0 1.935419,-0.174988 2.850128,-0.422242 -2.091523,1.990715 -3.404321,4.778285 -3.404321,7.890639 0,6.032626 4.889681,10.925493 10.925492,10.925493 0.400052,0 0.771722,-0.06201 1.161162,-0.105605 -0.957153,1.624595 -1.557011,3.4951 -1.557011,5.515501 0,6.032642 4.889679,10.925512 10.925491,10.925512 6.032627,0 10.925489,-4.89287 10.925489,-10.925512 0,-2.017235 -0.576651,-3.889836 -1.530623,-5.515501 0.3332,0.03199 0.661131,0.105605 1.002822,0.105605 6.032626,0 10.925491,-4.892867 10.925491,-10.925493 0,-3.143131 -1.360129,-5.950586 -3.483494,-7.943411 0.961407,0.278014 1.956877,0.475014 3.008477,0.475014 6.031562,0 10.925488,-4.892869 10.925488,-10.925492 0,-3.13145 -1.31902,-5.927372 -3.430705,-7.917023 0.929571,0.258918 1.889509,0.422242 2.902902,0.422242 6.031565,-8.18e-4 10.925491,-4.892865 10.925491,-10.925494 0,-6.032626 -4.893926,-10.899099 -10.925491,-10.899099 -5.00013,0 -9.178012,3.363495 -10.476854,7.94341 -1.268218,-4.457338 -5.237832,-7.769685 -10.054622,-7.94341 l 0,-15.702097 c 0,0 1.312301,-6.57113 7.336441,-6.57113 6.024137,0 4.908556,15.622928 4.908556,15.622928 l 5.832213,0 c 0,0 2.823729,-4.153627 2.823729,-9.236526 0,-5.086086 -4.709871,-14.4881552 -12.429725,-14.4881552 z M 33.658889,35.731386 c 4.183046,0 7.573952,3.389845 7.573952,7.57395 0,4.184107 -3.389844,7.600343 -7.573952,7.600343 -4.184108,0 -7.573953,-3.416236 -7.573953,-7.600343 0,-4.184105 3.390906,-7.57395 7.573953,-7.57395 z m 20.742599,0 c 4.070952,0.127842 7.336442,3.470904 7.336442,7.57395 0,4.184107 -3.389845,7.600343 -7.573953,7.600343 -4.184106,0 -7.573951,-3.416236 -7.573951,-7.600343 0,-3.905086 2.961154,-7.136373 6.755859,-7.547561 0.01702,-0.0018 0.03574,0.0017 0.05277,0 0.32098,2.95e-4 0.678373,0 0.976434,0 0.0085,0 0.018,-0.0177 0.0264,-0.0264 z m -41.80188,0.0264 c 4.183046,0 7.573952,3.389845 7.573952,7.573952 0,4.184107 -3.389845,7.600343 -7.573952,7.600343 -4.184107,0 -7.5739511,-3.416236 -7.5739511,-7.600343 0,-4.184107 3.3898441,-7.573952 7.5739511,-7.573952 z m 62.702819,0 c 4.183049,0 7.573952,3.389845 7.573952,7.573952 0,4.184107 -3.389846,7.600343 -7.573952,7.600343 -4.184104,0 -7.600335,-3.416236 -7.600335,-7.600343 0,-4.184107 3.416231,-7.573952 7.600335,-7.573952 z m -52.146788,18.42027 c 4.183047,0 7.573952,3.389845 7.573952,7.573952 0,4.184109 -3.389845,7.573955 -7.573952,7.573955 -4.184109,0 -7.573952,-3.389846 -7.573952,-7.573955 0,-4.184107 3.389843,-7.573952 7.573952,-7.573952 z m 20.92733,0 c 4.183045,0 7.57395,3.389845 7.57395,7.573952 0,4.184109 -3.389845,7.573955 -7.57395,7.573955 -4.184108,0 -7.573952,-3.389846 -7.573952,-7.573955 0,-4.184107 3.390906,-7.573952 7.573952,-7.573952 z m 20.821773,0 c 4.183047,0 7.60034,3.389845 7.60034,7.573952 0,4.184109 -3.416236,7.573955 -7.60034,7.573955 -4.184107,0 -7.573954,-3.389846 -7.573954,-7.573955 0,-4.184107 3.389847,-7.573952 7.573954,-7.573952 z M 33.526938,72.571934 c 4.184107,0 7.573951,3.38984 7.573951,7.573957 0,4.184101 -3.389844,7.573957 -7.573951,7.573957 -4.183046,0 -7.600342,-3.388784 -7.600342,-7.573957 0.0011,-4.184117 3.417296,-7.573957 7.600342,-7.573957 z m 20.92733,0 c 4.183047,0 7.573948,3.38984 7.573948,7.573957 0,4.184101 -3.38984,7.573957 -7.573948,7.573957 -4.184106,0 -7.57395,-3.388784 -7.57395,-7.573957 0,-4.184117 3.390903,-7.573957 7.57395,-7.573957 z M 44.05658,88.907401 c 4.183045,0 7.600339,3.38984 7.600339,7.573937 0,4.184102 -3.416231,7.573962 -7.600339,7.573962 -4.184109,0 -7.573954,-3.38986 -7.573954,-7.573962 0,-4.184097 3.389845,-7.573937 7.573954,-7.573937 z"
     id="path5"
     inkscape:connector-curvature="0" />
</svg>
