<?xml version="1.0" encoding="UTF-8" standalone="no"?>
<!-- Created with Inkscape (http://www.inkscape.org/) -->

<svg
   xmlns:dc="http://purl.org/dc/elements/1.1/"
   xmlns:cc="http://creativecommons.org/ns#"
   xmlns:rdf="http://www.w3.org/1999/02/22-rdf-syntax-ns#"
   xmlns:svg="http://www.w3.org/2000/svg"
   xmlns="http://www.w3.org/2000/svg"
   xmlns:sodipodi="http://sodipodi.sourceforge.net/DTD/sodipodi-0.dtd"
   xmlns:inkscape="http://www.inkscape.org/namespaces/inkscape"
   id="svg4410"
   version="1.1"
   inkscape:version="0.91 r13725"
   width="40"
   height="40"
   viewBox="0 0 40 40"
   sodipodi:docname="stock.svg">
  <metadata
     id="metadata4416">
    <rdf:RDF>
      <cc:Work
         rdf:about="">
        <dc:format>image/svg+xml</dc:format>
        <dc:type
           rdf:resource="http://purl.org/dc/dcmitype/StillImage" />
        <dc:title></dc:title>
      </cc:Work>
    </rdf:RDF>
  </metadata>
  <defs
     id="defs4414" />
  <sodipodi:namedview
     pagecolor="#ffffff"
     bordercolor="#666666"
     borderopacity="1"
     objecttolerance="10"
     gridtolerance="10"
     guidetolerance="10"
     inkscape:pageopacity="0"
     inkscape:pageshadow="2"
     inkscape:window-width="1600"
     inkscape:window-height="836"
     id="namedview4412"
     showgrid="false"
     inkscape:zoom="6.0903226"
     inkscape:cx="-19.247881"
     inkscape:cy="21.016949"
     inkscape:window-x="0"
     inkscape:window-y="27"
     inkscape:window-maximized="1"
     inkscape:current-layer="svg4410" />
  <path
     style="color:#000000;font-style:normal;font-variant:normal;font-weight:normal;font-stretch:normal;font-size:medium;line-height:normal;font-family:sans-serif;text-indent:0;text-align:start;text-decoration:none;text-decoration-line:none;text-decoration-style:solid;text-decoration-color:#000000;letter-spacing:normal;word-spacing:normal;text-transform:none;direction:ltr;block-progression:tb;writing-mode:lr-tb;baseline-shift:baseline;text-anchor:start;white-space:normal;clip-rule:nonzero;display:inline;overflow:visible;visibility:visible;opacity:1;isolation:auto;mix-blend-mode:normal;color-interpolation:sRGB;color-interpolation-filters:linearRGB;solid-color:#000000;solid-opacity:1;fill:#000000;fill-opacity:1;fill-rule:nonzero;stroke:none;stroke-width:0.51236898;stroke-linecap:butt;stroke-linejoin:round;stroke-miterlimit:4;stroke-dasharray:none;stroke-dashoffset:0;stroke-opacity:1;color-rendering:auto;image-rendering:auto;shape-rendering:auto;text-rendering:auto;enable-background:accumulate"
     d="M 3.9960938,6.2939452 C 3.795199,6.6303953 3.5955272,6.9678739 3.4101562,7.3271484 2.9276796,8.262255 2.4968967,9.2735295 2.1269531,10.34668 l 3.7871094,0 0,-4.0527348 -1.9179687,0 z m 2.9179687,0 0,4.0527348 4.8164065,0 0,-4.0527348 -4.8164065,0 z m 5.8164065,0 0,4.0527348 4.818359,0 0,-4.0527348 -4.818359,0 z m 5.818359,0 0,4.0527348 3.783203,0 C 21.817004,8.8590474 21.187781,7.498577 20.466797,6.2939452 l -1.917969,0 z M 1.8203125,11.34668 c -0.90637612,3.018054 -1.36748286,6.457531 -1.22460938,10.072266 0.10425095,2.637573 0.52437218,5.106966 1.18164068,7.33789 l 4.1367187,0 0,-17.410156 -4.09375,0 z m 5.09375,0 0,17.410156 4.8164065,0 0,-17.410156 -4.8164065,0 z m 5.8164065,0 0,17.410156 4.818359,0 0,-17.410156 -4.818359,0 z m 5.818359,0 0,17.410156 4.138672,0 c 0.869593,-2.955173 1.314378,-6.308458 1.185547,-9.832031 -0.0015,-0.03312 -0.0095,-0.06562 -0.02344,-0.0957 0.01176,-0.03184 0.01705,-0.0657 0.01563,-0.09961 C 23.75222,16.06978 23.317263,13.58552 22.642578,11.34668 l -4.09375,0 z M 2.0839844,29.756836 c 0.4885212,1.44156 1.0816685,2.767746 1.7636718,3.949219 l 2.0664063,0 0,-3.949219 -3.8300781,0 z m 4.8300781,0 0,3.949219 4.8164065,0 0,-3.949219 -4.8164065,0 z m 5.8164065,0 0,3.949219 4.818359,0 0,-3.949219 -4.818359,0 z m 5.818359,0 0,3.949219 2.058594,0 c 0.136683,-0.237022 0.278993,-0.464972 0.408203,-0.712891 0.51896,-0.995744 0.972985,-2.082693 1.363281,-3.236328 l -3.830078,0 z"
     id="path4964"
     inkscape:connector-curvature="0" />
</svg>
